<?xml version="1.0" encoding="UTF-8"?>
<svg width="200" height="40" viewBox="0 0 200 40" fill="none" xmlns="http://www.w3.org/2000/svg">
  <path d="M20.3 31.6c-1.4 0-2.6-.2-3.8-.7-1.1-.5-2.1-1.1-2.9-2-.8-.9-1.4-1.9-1.9-3.1-.4-1.2-.6-2.5-.6-3.9 0-1.4.2-2.7.6-3.9.5-1.2 1.1-2.2 1.9-3.1.8-.9 1.8-1.5 2.9-2 1.1-.5 2.4-.7 3.8-.7 1.4 0 2.6.2 3.8.7 1.1.5 2.1 1.1 2.9 2 .8.9 1.4 1.9 1.9 3.1.4 1.2.6 2.5.6 3.9 0 1.4-.2 2.7-.6 3.9-.5 1.2-1.1 2.2-1.9 3.1-.8.9-1.8 1.5-2.9 2-1.2.5-2.4.7-3.8.7zm0-3.6c.8 0 1.5-.1 2.1-.4.6-.3 1.1-.7 1.5-1.2.4-.5.7-1.1.9-1.8.2-.7.3-1.4.3-2.2 0-.8-.1-1.5-.3-2.2-.2-.7-.5-1.3-.9-1.8-.4-.5-.9-.9-1.5-1.2-.6-.3-1.3-.4-2.1-.4s-1.5.1-2.1.4c-.6.3-1.1.7-1.5 1.2-.4.5-.7 1.1-.9 1.8-.2.7-.3 1.4-.3 2.2 0 .8.1 1.5.3 2.2.2.7.5 1.3.9 1.8.4.5.9.9 1.5 1.2.6.3 1.3.4 2.1.4zM35.6 31.3V12.7h3.8l.3 2.5c.6-.9 1.3-1.6 2.2-2.1.9-.5 1.9-.7 3-.7.9 0 1.7.1 2.4.4.7.3 1.4.7 1.9 1.2.5.5.9 1.2 1.2 1.9.3.7.4 1.6.4 2.5v12.9h-4.4V19c0-1-.2-1.7-.7-2.3-.5-.5-1.2-.8-2.1-.8-.5 0-.9.1-1.4.3-.4.2-.8.4-1.1.8-.3.3-.6.7-.8 1.2-.2.5-.3 1-.3 1.5v11.6h-4.4zM61.8 31.6c-1.3 0-2.5-.2-3.6-.7-1.1-.5-2-1.1-2.8-2-.8-.8-1.4-1.9-1.8-3-.4-1.2-.7-2.4-.7-3.8 0-1.4.2-2.6.6-3.8.4-1.2 1-2.2 1.8-3 .8-.9 1.7-1.5 2.8-2 1.1-.5 2.3-.7 3.6-.7 1.5 0 2.8.3 3.9.9 1.1.6 2 1.4 2.7 2.4l-2.7 2.4c-.4-.6-.9-1.1-1.5-1.5-.6-.3-1.4-.5-2.3-.5-.7 0-1.4.1-2 .4-.6.3-1.1.7-1.5 1.2-.4.5-.7 1.1-.9 1.7-.2.7-.3 1.4-.3 2.1 0 .8.1 1.5.3 2.2.2.7.5 1.3.9 1.8.4.5.9.9 1.5 1.2.6.3 1.3.4 2 .4.9 0 1.7-.2 2.3-.5.6-.4 1.1-.8 1.5-1.5l2.7 2.4c-.7 1-1.6 1.8-2.7 2.4-1 .6-2.3.9-3.8.9zM72.9 31.3V12.7h3.8l.3 2.5c.6-.9 1.3-1.6 2.2-2.1.9-.5 1.9-.7 3-.7.9 0 1.7.1 2.4.4.7.3 1.4.7 1.9 1.2.5.5.9 1.2 1.2 1.9.3.7.4 1.6.4 2.5v12.9h-4.4V19c0-1-.2-1.7-.7-2.3-.5-.5-1.2-.8-2.1-.8-.5 0-.9.1-1.4.3-.4.2-.8.4-1.1.8-.3.3-.6.7-.8 1.2-.2.5-.3 1-.3 1.5v11.6h-4.4zM99.1 31.6c-1.3 0-2.5-.2-3.6-.7-1.1-.5-2-1.1-2.8-2-.8-.8-1.4-1.9-1.8-3-.4-1.2-.7-2.4-.7-3.8 0-1.4.2-2.6.6-3.8.4-1.2 1-2.2 1.8-3 .8-.9 1.7-1.5 2.8-2 1.1-.5 2.3-.7 3.6-.7 1.5 0 2.8.3 3.9.9 1.1.6 2 1.4 2.7 2.4l-2.7 2.4c-.4-.6-.9-1.1-1.5-1.5-.6-.3-1.4-.5-2.3-.5-.7 0-1.4.1-2 .4-.6.3-1.1.7-1.5 1.2-.4.5-.7 1.1-.9 1.7-.2.7-.3 1.4-.3 2.1 0 .8.1 1.5.3 2.2.2.7.5 1.3.9 1.8.4.5.9.9 1.5 1.2.6.3 1.3.4 2 .4.9 0 1.7-.2 2.3-.5.6-.4 1.1-.8 1.5-1.5l2.7 2.4c-.7 1-1.6 1.8-2.7 2.4-1 .6-2.3.9-3.8.9zM110.2 31.3V12.7h3.8l.3 2.5c.6-.9 1.3-1.6 2.2-2.1.9-.5 1.9-.7 3-.7.9 0 1.7.1 2.4.4.7.3 1.4.7 1.9 1.2.5.5.9 1.2 1.2 1.9.3.7.4 1.6.4 2.5v12.9h-4.4V19c0-1-.2-1.7-.7-2.3-.5-.5-1.2-.8-2.1-.8-.5 0-.9.1-1.4.3-.4.2-.8.4-1.1.8-.3.3-.6.7-.8 1.2-.2.5-.3 1-.3 1.5v11.6h-4.4zM136.4 31.6c-1.3 0-2.5-.2-3.6-.7-1.1-.5-2-1.1-2.8-2-.8-.8-1.4-1.9-1.8-3-.4-1.2-.7-2.4-.7-3.8 0-1.4.2-2.6.6-3.8.4-1.2 1-2.2 1.8-3 .8-.9 1.7-1.5 2.8-2 1.1-.5 2.3-.7 3.6-.7 1.5 0 2.8.3 3.9.9 1.1.6 2 1.4 2.7 2.4l-2.7 2.4c-.4-.6-.9-1.1-1.5-1.5-.6-.3-1.4-.5-2.3-.5-.7 0-1.4.1-2 .4-.6.3-1.1.7-1.5 1.2-.4.5-.7 1.1-.9 1.7-.2.7-.3 1.4-.3 2.1 0 .8.1 1.5.3 2.2.2.7.5 1.3.9 1.8.4.5.9.9 1.5 1.2.6.3 1.3.4 2 .4.9 0 1.7-.2 2.3-.5.6-.4 1.1-.8 1.5-1.5l2.7 2.4c-.7 1-1.6 1.8-2.7 2.4-1 .6-2.3.9-3.8.9zM147.5 31.3V12.7h3.8l.3 2.5c.6-.9 1.3-1.6 2.2-2.1.9-.5 1.9-.7 3-.7.9 0 1.7.1 2.4.4.7.3 1.4.7 1.9 1.2.5.5.9 1.2 1.2 1.9.3.7.4 1.6.4 2.5v12.9h-4.4V19c0-1-.2-1.7-.7-2.3-.5-.5-1.2-.8-2.1-.8-.5 0-.9.1-1.4.3-.4.2-.8.4-1.1.8-.3.3-.6.7-.8 1.2-.2.5-.3 1-.3 1.5v11.6h-4.4z" fill="#004AAD"/>
  <path d="M173.7 31.6c-1.3 0-2.5-.2-3.6-.7-1.1-.5-2-1.1-2.8-2-.8-.8-1.4-1.9-1.8-3-.4-1.2-.7-2.4-.7-3.8 0-1.4.2-2.6.6-3.8.4-1.2 1-2.2 1.8-3 .8-.9 1.7-1.5 2.8-2 1.1-.5 2.3-.7 3.6-.7 1.5 0 2.8.3 3.9.9 1.1.6 2 1.4 2.7 2.4l-2.7 2.4c-.4-.6-.9-1.1-1.5-1.5-.6-.3-1.4-.5-2.3-.5-.7 0-1.4.1-2 .4-.6.3-1.1.7-1.5 1.2-.4.5-.7 1.1-.9 1.7-.2.7-.3 1.4-.3 2.1 0 .8.1 1.5.3 2.2.2.7.5 1.3.9 1.8.4.5.9.9 1.5 1.2.6.3 1.3.4 2 .4.9 0 1.7-.2 2.3-.5.6-.4 1.1-.8 1.5-1.5l2.7 2.4c-.7 1-1.6 1.8-2.7 2.4-1 .6-2.3.9-3.8.9z" fill="#004AAD"/>
  <circle cx="185" cy="31" r="2" fill="#004AAD"/>
</svg>